<?xml version="1.0" encoding="utf-8"?>
<!-- Generator: Adobe Illustrator 16.0.2, SVG Export Plug-In . SVG Version: 6.00 Build 0)  -->
<!DOCTYPE svg PUBLIC "-//W3C//DTD SVG 1.1//EN" "http://www.w3.org/Graphics/SVG/1.1/DTD/svg11.dtd">
<svg version="1.1" id="Layer_1" xmlns="http://www.w3.org/2000/svg" xmlns:xlink="http://www.w3.org/1999/xlink" x="0px" y="0px"
	 width="195px" height="60px" viewBox="0 0 195 60" style="enable-background:new 0 0 195 60;" xml:space="preserve">
<g>
	<g>
		<g>
			<path style="fill-rule:evenodd;clip-rule:evenodd;fill:#F2E9F2;" d="M117.882,15.43L98.663,4.487
				c-0.458-0.26-1.032-0.408-1.629-0.462V4c-0.049,0.002-0.097,0.009-0.146,0.013C96.84,4.009,96.792,4.002,96.743,4v0.025
				c-0.597,0.055-1.171,0.202-1.629,0.462L75.896,15.43c-1.168,0.665-2.123,2.298-2.123,3.627v21.885
				c0,1.33,0.955,2.963,2.123,3.627l19.219,10.943c0.458,0.261,1.032,0.407,1.629,0.462V56c0.049-0.002,0.097-0.01,0.146-0.013
				c0.049,0.003,0.097,0.011,0.146,0.013v-0.025c0.597-0.055,1.171-0.201,1.629-0.462l19.219-10.943
				c1.168-0.664,2.124-2.297,2.124-3.627V19.057C120.006,17.728,119.05,16.095,117.882,15.43z M10.108,28.621H6.518v-6.746H4.002
				v16.187h2.516v-7.135h3.591v7.135h2.516V21.875h-2.516V28.621z M21.616,38.062h7.377v-2.306h-4.861v-4.999h3.591v-2.306h-3.591
				v-4.271h4.861v-2.306h-7.377V38.062z M41.749,21.875l-3.127,16.187h2.468l0.659-3.52h3.468l0.685,3.52h2.589l-3.297-16.187
				H41.749z M42.14,32.237l1.319-7.256l1.343,7.256H42.14z M65.083,26.51c0-1.602-0.488-2.839-1.466-3.665
				c-0.781-0.68-1.733-0.971-3.224-0.971h-3.933v16.187h2.516v-6.649h1.515l2.149,6.649h2.638l-2.394-7.354
				C64.351,29.956,65.083,28.549,65.083,26.51z M61.859,28.597c-0.391,0.389-0.88,0.51-1.954,0.51h-0.929v-4.926h0.929
				c1.074,0,1.563,0.121,1.954,0.51c0.415,0.412,0.61,1.067,0.61,1.941C62.47,27.529,62.274,28.185,61.859,28.597z M133.012,21.875
				h-4.176v16.187h2.516v-6.553h1.66c1.637,0,2.663-0.315,3.42-1.043c0.88-0.825,1.295-2.039,1.295-3.786
				c0-1.723-0.415-2.936-1.295-3.761C135.675,22.19,134.648,21.875,133.012,21.875z M132.451,29.204h-1.1v-5.023h1.1
				c2.027,0,2.662,0.606,2.662,2.499C135.113,28.597,134.479,29.204,132.451,29.204z M148.771,21.875h-2.516v16.187h7.522v-2.306
				h-5.007V21.875z M166.458,21.875l-3.126,16.187h2.467l0.659-3.52h3.469l0.685,3.52h2.588l-3.297-16.187H166.458z M166.85,32.237
				l1.318-7.256l1.344,7.256H166.85z M188.262,21.875l-2.247,6.843l-2.174-6.843h-2.784l3.664,9.877v6.31h2.516v-6.31l3.762-9.877
				H188.262z"/>
		</g>
	</g>
</g>
</svg>
